<svg id="レイヤー_1" data-name="レイヤー 1" xmlns="http://www.w3.org/2000/svg" width="212.983" height="47.426" viewBox="0 0 212.983 47.426"><defs><style>.cls-1{fill:#fff;}</style></defs><path class="cls-1" d="M15.6,31.385l-1.055,1.107a32.651,32.651,0,0,1-6.706,6.261l-.926.936L6.08,38.156l1.086-.723A46.711,46.711,0,0,0,12.659,30.7l.7-1.448ZM21.154,37.9a22.528,22.528,0,0,0,.16,2.555H18.7l.032-.426a17.67,17.67,0,0,0,.128-2.129V27.936H9.242a13.608,13.608,0,0,0-2.4.127,21.6,21.6,0,0,0,.159-3.194V9.581a18.359,18.359,0,0,0-.159-2.556H9.434a22.309,22.309,0,0,0-.16,2.556V26.232H31.789a10.23,10.23,0,0,0,1.917-.17v2.044a10.147,10.147,0,0,0-1.917-.17H21.154ZM27.7,4.3a12.973,12.973,0,0,0,2.4-.128,21.933,21.933,0,0,0-.16,3.194V19.418a21.942,21.942,0,0,0,.16,3.194,13.7,13.7,0,0,0-1.885-.128H15.438a13.515,13.515,0,0,0-2.4.128,21.585,21.585,0,0,0,.16-3.194V7.366a22.664,22.664,0,0,0-.16-3.194,16.4,16.4,0,0,0,2.4.128ZM27.638,6H15.47V9.751H27.638ZM15.47,11.454v3.705H27.638v-3.7Zm0,5.409v3.918H27.638V16.863ZM26.36,30.107A49.218,49.218,0,0,1,32.651,35.6l1.086.937-2.011,2.811-.767-1.32a64.091,64.091,0,0,0-5.4-6.516l-.99-.852.926-1.448Z" transform="translate(-5.263 -1.531)"/><path class="cls-1" d="M62.291,36.453a10.144,10.144,0,0,0,1.916-.17v2.044a10.148,10.148,0,0,0-1.916-.171H37.38a10.631,10.631,0,0,0-1.917.171V36.283a10.377,10.377,0,0,0,1.917.17H51.911l.16-.639.063-.255c1.725-6.346,3.354-13.756,4.471-20.442l.16-1.618,2.97,1.192-.51,1.448c-1.534,6.558-3.642,14.054-5.781,20.314ZM48.558,4.683a18.253,18.253,0,0,0-.16-2.556h2.683a22.321,22.321,0,0,0-.16,2.556V9.708H61.492a10.129,10.129,0,0,0,1.916-.17v2.044a10.129,10.129,0,0,0-1.916-.17H38.178a10.606,10.606,0,0,0-1.916.17V9.538a10.36,10.36,0,0,0,1.916.17h10.38ZM42.266,15.755c1.405,4.515,2.778,9.923,4.024,15.63l.479,1.576L43.863,34.2l-.128-1.7-.256-1.7c-.8-5.451-1.692-10.392-2.586-14.31l-.511-1.533,1.5-.766Z" transform="translate(-5.263 -1.531)"/><path class="cls-1" d="M66.412,38.114c1.565-5.409,2.2-11.328,2.2-20.059V7.622a20.889,20.889,0,0,0-.16-3.408,16.255,16.255,0,0,0,2.395.128H92.217a10.136,10.136,0,0,0,1.916-.17V6.216a10.136,10.136,0,0,0-1.916-.17h-21.3V18.1c0,8.858-1.086,15.374-3.385,20.7L66.955,40.2l-1.182-.767ZM81.965,28.063a18.347,18.347,0,0,0-.159-2.555h2.587a22.306,22.306,0,0,0-.16,2.555v2.13H90.46a10.133,10.133,0,0,0,1.916-.171v2.044a10.212,10.212,0,0,0-1.916-.17H84.233v5.579H92.7a10.129,10.129,0,0,0,1.916-.17v2.044a10.129,10.129,0,0,0-1.916-.17H72.033a10.6,10.6,0,0,0-1.916.17V37.305a10.36,10.36,0,0,0,1.916.17h3.194V30.533a18.241,18.241,0,0,0-.16-2.555h2.587a22.306,22.306,0,0,0-.16,2.555v6.942h4.471ZM77.973,15.2a20.909,20.909,0,0,1,3.194,2.768l.862.639-1.5,2.385-.543-1.15a27.3,27.3,0,0,0-2.012-3.066v6.005a22.306,22.306,0,0,0,.16,2.555H75.8l.032-.426a17.67,17.67,0,0,0,.128-2.129V17.417a24.415,24.415,0,0,1-3.449,5.238l-.7.979-.831-1.278.8-.766a27.863,27.863,0,0,0,3.865-7.708H73.47a10.606,10.606,0,0,0-1.916.17V12.008a10.36,10.36,0,0,0,1.916.17h2.491V9.964a18.226,18.226,0,0,0-.16-2.555h2.332a22.281,22.281,0,0,0-.16,2.555v2.214h1.916a10.147,10.147,0,0,0,1.917-.17v2.044a10.147,10.147,0,0,0-1.917-.17H77.973Zm6.739-1.32a10.624,10.624,0,0,0-1.917.17V12.008a10.377,10.377,0,0,0,1.917.17h2.14V9.964a18.226,18.226,0,0,0-.16-2.555h2.331a22.467,22.467,0,0,0-.159,2.555v2.214h3.193a10.147,10.147,0,0,0,1.917-.17v2.044a10.147,10.147,0,0,0-1.917-.17H89.438a21.118,21.118,0,0,0,4.376,6.6l1.118.894-1.5,2.641L92.6,22.825a26.861,26.861,0,0,1-3.736-7.367v7.367a22.467,22.467,0,0,0,.159,2.555H86.692l.032-.425a17.674,17.674,0,0,0,.128-2.13V17.332a20.2,20.2,0,0,1-3.96,5.365l-.831,1.022-.862-1.15.926-.851a26.19,26.19,0,0,0,4.343-7.836Z" transform="translate(-5.263 -1.531)"/><path class="cls-1" d="M119.908,10.3a13.067,13.067,0,0,0,2.395-.127,24.952,24.952,0,0,0-.16,3.364v6.346a23.236,23.236,0,0,0,.16,3.279,13.7,13.7,0,0,0-1.885-.128h-8.5a25.439,25.439,0,0,1-1.693,9.156c3.194,2.257,7.154,3.7,12.616,4.685l1.6.128-1.213,3.407-1.246-.469c-5.365-1.362-10.155-3.534-12.838-5.834-2.236,2.938-5.653,4.94-10.571,6.09l-1.373.425-.479-1.66,1.5-.3c4.215-1.32,7.345-3.364,9.2-6.047a39.023,39.023,0,0,1-5.078-5.749l-1.022-1.107,1.055-1.278.734,1.192a33.188,33.188,0,0,0,5.238,5.111,22.181,22.181,0,0,0,1.277-7.751h-8.176a13.5,13.5,0,0,0-2.395.128,22.9,22.9,0,0,0,.159-3.279V13.541a20.441,20.441,0,0,0-.159-3.364,16.419,16.419,0,0,0,2.395.127h8.176V4.683a18.253,18.253,0,0,0-.16-2.556h2.619a22.321,22.321,0,0,0-.16,2.556V10.3Zm-10.284,1.7h-8.08v9.326h8.08Zm2.3,9.326h7.889V12.008h-7.889Z" transform="translate(-5.263 -1.531)"/><path class="cls-1" d="M131.6,37.9a22.246,22.246,0,0,0,.159,2.555h-2.619l.032-.426A17.67,17.67,0,0,0,129.3,37.9V15.33h-2.2a10.606,10.606,0,0,0-1.916.17V13.456a10.454,10.454,0,0,0,1.916.17h2.2V4.683a18.253,18.253,0,0,0-.16-2.556h2.619a22.273,22.273,0,0,0-.159,2.556v8.943h1.852a10.227,10.227,0,0,0,1.916-.17V15.5a10.144,10.144,0,0,0-1.916-.17H131.6Zm18.491-25.68a12.961,12.961,0,0,0,2.4-.128,21.942,21.942,0,0,0-.16,3.194v6.005a21.942,21.942,0,0,0,.16,3.194,13.692,13.692,0,0,0-1.884-.128h-.99v3.62h2.65a10.147,10.147,0,0,0,1.917-.17v2.044a10.147,10.147,0,0,0-1.917-.17h-2.65v8.347c0,1.618-.416,2.214-1.5,2.214a12.967,12.967,0,0,1-3.673-.937l-1.31-.3-.191-1.533a26.442,26.442,0,0,0,3.449.341c.766,0,.958-.256.958-1.235v-6.9H135.782a10.606,10.606,0,0,0-1.916.17V27.808a10.36,10.36,0,0,0,1.916.17h11.561v-3.62h-8.878a13.515,13.515,0,0,0-2.4.128,21.585,21.585,0,0,0,.16-3.194V15.287a22.664,22.664,0,0,0-.16-3.194,16.4,16.4,0,0,0,2.4.128h4.5V8.856h-6.515a10.606,10.606,0,0,0-1.916.171V6.982a10.365,10.365,0,0,0,1.916.171h6.515V4.683a18.253,18.253,0,0,0-.16-2.556h2.523a22.556,22.556,0,0,0-.16,2.556v2.47h5.015l-.352-.724A25.146,25.146,0,0,0,147.6,3.49l-.575-.426.734-1.234.479.468a15.844,15.844,0,0,1,2.875,2.087l.734.426-1.5,2.342h1.437a10.151,10.151,0,0,0,1.917-.171V9.027a10.151,10.151,0,0,0-1.917-.171h-6.611v3.365ZM138.752,31.129a25.914,25.914,0,0,1,3.417,3.365l.831.6-1.917,2.64-.383-1.022a34.917,34.917,0,0,0-2.778-4.343l-.607-.6.894-1.278Zm4.28-17.205h-4.663v3.45h4.663Zm-4.663,5.153v3.578h4.663V19.077Zm11.817-1.7v-3.45h-5.079v3.45Zm-5.079,5.281h5.079V19.077h-5.079Z" transform="translate(-5.263 -1.531)"/><path class="cls-1" d="M163.377,11.5V4.683a18.253,18.253,0,0,0-.16-2.556h2.524a22.321,22.321,0,0,0-.16,2.556V11.5h1.756a10.212,10.212,0,0,0,1.916-.17v2.044a10.133,10.133,0,0,0-1.916-.171h-1.756v9.114c.862-.468,1.149-.6,1.692-.894l.991-.511.894-.724.479,1.575-.863.426c-1.565,1.15-2.267,1.619-3.193,2.257V37.9a22.294,22.294,0,0,0,.16,2.555h-2.524l.033-.426a17.859,17.859,0,0,0,.127-2.129V25.849l-.287.213c-1.374.852-2.2,1.362-3.673,2.214l-.958.767-1.086-3.066,1.118-.3c1.118-.468,2.906-1.277,4.375-2.044l.511-.213V13.2h-2.746a66.933,66.933,0,0,1-1.693,7.027l-.288,1.107-1.277-.511.383-1.064a90.444,90.444,0,0,0,1.725-14.054l-.032-1.533,2.587.426-.351,1.575c-.256,2.258-.415,3.45-.735,5.324Zm18.044-.809c-.862,12.222-3.7,19.888-10.028,27.085l-.83,1.107-.894-1.32.958-.936c5.333-7.368,7.728-14.608,8.591-25.936h-2.012c-1.022,8.006-3.449,14.011-7.92,19.505l-.8,1.107-.894-1.15.894-.98a42.763,42.763,0,0,0,6.451-18.482h-2.076a40.679,40.679,0,0,1-3.13,7.41l-.67,1.405-1.022-.894.7-1.277a54.5,54.5,0,0,0,3.545-13.5l.159-1.746,2.523.639-.511,1.746c-.319,1.576-.542,2.512-1.085,4.514h9.453a14.557,14.557,0,0,0,2.651-.128v1.321c0,12.733-.416,21.506-1.279,27.043-.319,2.172-.765,2.81-1.884,2.81a15.648,15.648,0,0,1-4.5-1.064l-1.724-.469-.224-1.661a22.013,22.013,0,0,0,4.791.724c1.054,0,1.245-.383,1.6-2.981.7-4.812,1.022-12.223,1.054-23.891Z" transform="translate(-5.263 -1.531)"/><path class="cls-1" d="M199.18,13.541a12.961,12.961,0,0,0,2.395-.128,23.936,23.936,0,0,0-.159,3.322v6.984a24.288,24.288,0,0,0,.159,3.322,13.682,13.682,0,0,0-1.884-.127H193.91v8.261c1.981-.6,4.025-1.277,5.558-1.873l-.1-.341-.064-.256c-.224-.809-.32-1.107-.767-2.555l-.511-1.192,1.278-.81.415,1.278a72.653,72.653,0,0,1,2.81,7.112l.608,1.278-2.365,1.4-.222-1.575c-.256-1.235-.32-1.406-.575-2.385l-.128-.554c-2.364,1.32-5.813,3.066-8.528,4.259l-1.149.723-.958-3.236,1.277-.3.83-.213.48-.128V16.735c0-1.4-.032-2.044-.1-2.853-.447.511-.543.639-1.086,1.235l-.862,1.107-.927-1.448.927-.809a35.191,35.191,0,0,0,5.3-10.6l.35-1.832,2.491.9L197.424,3.7A31.4,31.4,0,0,0,201.671,8.9l.927.724-1.47,2.6-.734-1.15a45.76,45.76,0,0,1-3.513-5.92,30.087,30.087,0,0,1-4.855,8.305c.32.043,1.214.085,2.012.085H195.7V11.667a17.487,17.487,0,0,0-.16-2.555h2.4a17.867,17.867,0,0,0-.161,2.555v1.874Zm-5.27,1.7v3.918h5.4V15.245Zm0,5.621V25.21h5.4V20.866ZM215.851,7.622a12.961,12.961,0,0,0,2.4-.128,22.965,22.965,0,0,0-.159,3.236v1.576a22.246,22.246,0,0,0,.159,2.555h-2.427c-.032.6-.064,1.235-.064,2.3v3.62a23.989,23.989,0,0,0,.16,3.279,13.7,13.7,0,0,0-1.885-.128h-7.025v4.813h7.473a12.961,12.961,0,0,0,2.395-.128,21.942,21.942,0,0,0-.16,3.194v4.557a21.95,21.95,0,0,0,.16,3.194,13.7,13.7,0,0,0-1.885-.128H207.1a13.51,13.51,0,0,0-2.4.128,21.616,21.616,0,0,0,.159-3.194V17.161a21.436,21.436,0,0,0-.063-2.3h-2.3l.032-.425a17.674,17.674,0,0,0,.128-2.13V10.73a23.69,23.69,0,0,0-.16-3.236,17.131,17.131,0,0,0,2.363.128h4.185V4.683a18.253,18.253,0,0,0-.16-2.556h2.491a22.321,22.321,0,0,0-.16,2.556V7.622Zm-11.082,1.7v2.981c0,.639.032,1.022.064,1.661a15.015,15.015,0,0,0,2.268.128h6.419a12.237,12.237,0,0,0,2.331-.128c.032-.468.064-1.065.064-1.661V9.325Zm2.236,12.9h6.642V15.8h-6.642Zm0,8.219V37.73h7.537V30.448Z" transform="translate(-5.263 -1.531)"/><path class="cls-1" d="M7.236,41.75c1.47,0,2.042.694,2.042,1.736v.776c0,1.133-.694,1.694-2.2,1.694H5.889V48.9H5.263V41.75Zm-.163,3.777c1.1,0,1.579-.367,1.579-1.235v-.837c0-.776-.354-1.276-1.416-1.276H5.889v3.348Z" transform="translate(-5.263 -1.531)"/><path class="cls-1" d="M14.882,41.75c1.456,0,2.041.6,2.041,1.613v.623c0,.837-.435,1.317-1.374,1.48.98.163,1.374.684,1.374,1.46v1.113a1.276,1.276,0,0,0,.232.857H16.5a1.324,1.324,0,0,1-.2-.857V46.916c0-.95-.694-1.215-1.783-1.215h-.993v3.2H12.9V41.75Zm-.354,3.522c1.116,0,1.769-.235,1.769-1.194V43.4c0-.766-.4-1.225-1.429-1.225H13.521v3.093Z" transform="translate(-5.263 -1.531)"/><path class="cls-1" d="M24.023,45.058v.428h-2.6v2.981h3.131V48.9H20.8V41.75h3.757v.429H21.424v2.879Z" transform="translate(-5.263 -1.531)"/><path class="cls-1" d="M31.315,45.231v.429H28.852V48.9h-.626V41.75h3.62v.429H28.852v3.052Z" transform="translate(-5.263 -1.531)"/><path class="cls-1" d="M38.675,45.058v.428h-2.6v2.981h3.131V48.9H35.449V41.75h3.757v.429H36.075v2.879Z" transform="translate(-5.263 -1.531)"/><path class="cls-1" d="M46.946,43.5v.592h-.6v-.623a1.446,1.446,0,0,0-2.885,0v3.716c0,.766.394,1.337,1.442,1.337s1.443-.571,1.443-1.337v-.847h.6v.816c0,1.032-.6,1.807-2.055,1.807s-2.056-.775-2.056-1.807V43.5c0-1.031.6-1.807,2.056-1.807S46.946,42.465,46.946,43.5Z" transform="translate(-5.263 -1.531)"/><path class="cls-1" d="M52.223,48.9V42.179H50.29V41.75H54.8v.429H52.849V48.9Z" transform="translate(-5.263 -1.531)"/><path class="cls-1" d="M58.82,47.171a1.431,1.431,0,0,0,2.858,0V41.75h.586v5.4c0,1.021-.572,1.807-2.029,1.807s-2.041-.786-2.041-1.807v-5.4h.626Z" transform="translate(-5.263 -1.531)"/><path class="cls-1" d="M67.976,41.75c1.456,0,2.042.6,2.042,1.613v.623c0,.837-.436,1.317-1.375,1.48.98.163,1.375.684,1.375,1.46v1.113a1.275,1.275,0,0,0,.231.857H69.6a1.318,1.318,0,0,1-.2-.857V46.916c0-.95-.695-1.215-1.784-1.215h-.993v3.2h-.626V41.75Zm-.354,3.522c1.116,0,1.77-.235,1.77-1.194V43.4c0-.766-.395-1.225-1.43-1.225H66.615v3.093Z" transform="translate(-5.263 -1.531)"/><path class="cls-1" d="M74.8,47.314,74.328,48.9h-.572l2.082-7.156h.912L78.874,48.9h-.626l-.477-1.582Zm.095-.409h2.777l-1.4-4.624Z" transform="translate(-5.263 -1.531)"/><path class="cls-1" d="M82.476,48.9V41.75H83.1v6.717H86.1V48.9Z" transform="translate(-5.263 -1.531)"/><path class="cls-1" d="M97.646,48.886h-.627l-2.014-6.319V48.9h-.558V41.75h.9l2,6.319,1.987-6.319h.9V48.9h-.6v-6.35Z" transform="translate(-5.263 -1.531)"/><path class="cls-1" d="M104.568,47.171a1.431,1.431,0,0,0,2.858,0V41.75h.586v5.4c0,1.021-.572,1.807-2.029,1.807s-2.041-.786-2.041-1.807v-5.4h.626Z" transform="translate(-5.263 -1.531)"/><path class="cls-1" d="M115.752,43.476v.152h-.6v-.183a1.227,1.227,0,0,0-1.415-1.327c-1.035,0-1.416.561-1.416,1.317,0,1.735,3.444,1.766,3.444,3.736,0,1.031-.6,1.786-2.056,1.786s-2.055-.755-2.055-1.786V46.8h.6v.4c0,.765.395,1.316,1.443,1.316s1.443-.551,1.443-1.316c0-1.716-3.444-1.746-3.444-3.737,0-1.071.626-1.766,2.028-1.776C115.167,41.689,115.752,42.444,115.752,43.476Z" transform="translate(-5.263 -1.531)"/><path class="cls-1" d="M122.648,45.058v.428h-2.6v2.981h3.131V48.9h-3.757V41.75h3.757v.429h-3.131v2.879Z" transform="translate(-5.263 -1.531)"/><path class="cls-1" d="M127.449,47.171a1.431,1.431,0,0,0,2.858,0V41.75h.586v5.4c0,1.021-.572,1.807-2.029,1.807s-2.041-.786-2.041-1.807v-5.4h.626Z" transform="translate(-5.263 -1.531)"/><path class="cls-1" d="M137.816,48.886h-.626l-2.014-6.319V48.9h-.558V41.75h.9l2,6.319L139.5,41.75h.9V48.9h-.6v-6.35Z" transform="translate(-5.263 -1.531)"/><path class="cls-1" d="M148.86,43.5c0-1.041.64-1.807,2.082-1.807,1.471,0,2.11.766,2.11,1.807V47.15c0,1.041-.639,1.807-2.11,1.807-1.442,0-2.082-.766-2.082-1.807Zm.626,3.685c0,.776.409,1.347,1.456,1.347s1.484-.571,1.484-1.347V43.465c0-.776-.422-1.347-1.484-1.347s-1.456.571-1.456,1.347Z" transform="translate(-5.263 -1.531)"/><path class="cls-1" d="M159.827,45.231v.429h-2.464V48.9h-.626V41.75h3.62v.429h-2.994v3.052Z" transform="translate(-5.263 -1.531)"/><path class="cls-1" d="M169.347,45.538V48.9h-.626V41.75h.626v3.359h2.967V41.75h.64V48.9h-.64V45.538Z" transform="translate(-5.263 -1.531)"/><path class="cls-1" d="M177.319,41.75V48.9h-.626V41.75Z" transform="translate(-5.263 -1.531)"/><path class="cls-1" d="M185.074,43.476v.152h-.6v-.183a1.228,1.228,0,0,0-1.416-1.327c-1.035,0-1.416.561-1.416,1.317,0,1.735,3.443,1.766,3.443,3.736,0,1.031-.6,1.786-2.055,1.786s-2.055-.755-2.055-1.786V46.8h.6v.4c0,.765.4,1.316,1.443,1.316s1.443-.551,1.443-1.316c0-1.716-3.444-1.746-3.444-3.737,0-1.071.626-1.766,2.028-1.776C184.489,41.689,185.074,42.444,185.074,43.476Z" transform="translate(-5.263 -1.531)"/><path class="cls-1" d="M190.352,48.9V42.179h-1.933V41.75h4.5v.429h-1.946V48.9Z" transform="translate(-5.263 -1.531)"/><path class="cls-1" d="M196.309,43.5c0-1.041.639-1.807,2.082-1.807,1.469,0,2.109.766,2.109,1.807V47.15c0,1.041-.64,1.807-2.109,1.807-1.443,0-2.082-.766-2.082-1.807Zm.626,3.685c0,.776.408,1.347,1.456,1.347s1.483-.571,1.483-1.347V43.465c0-.776-.422-1.347-1.483-1.347s-1.456.571-1.456,1.347Z" transform="translate(-5.263 -1.531)"/><path class="cls-1" d="M206.172,41.75c1.457,0,2.042.6,2.042,1.613v.623c0,.837-.436,1.317-1.375,1.48.98.163,1.375.684,1.375,1.46v1.113a1.275,1.275,0,0,0,.231.857h-.653a1.324,1.324,0,0,1-.2-.857V46.916c0-.95-.694-1.215-1.783-1.215h-.993v3.2h-.626V41.75Zm-.354,3.522c1.117,0,1.77-.235,1.77-1.194V43.4c0-.766-.395-1.225-1.43-1.225h-1.346v3.093Z" transform="translate(-5.263 -1.531)"/><path class="cls-1" d="M214.049,46.15l-2.137-4.4h.653l1.825,3.757,1.824-3.757h.612l-2.15,4.4V48.9h-.627Z" transform="translate(-5.263 -1.531)"/></svg>